<svg xmlns="http://www.w3.org/2000/svg" viewBox="0 0 960 260" role="img" aria-labelledby="title desc">
  <title id="title">dada2-nf logo</title>
  <desc id="desc">A University of Washington purple and gold pipeline logo with a DNA helix flowing into the text dada2-nf.</desc>
  <defs>
    <linearGradient id="purpleFlow" x1="80" y1="40" x2="520" y2="220" gradientUnits="userSpaceOnUse">
      <stop offset="0" stop-color="#4B2E83"/>
      <stop offset="0.55" stop-color="#6B4BA3"/>
      <stop offset="1" stop-color="#4B2E83"/>
    </linearGradient>
    <linearGradient id="goldFlow" x1="120" y1="220" x2="520" y2="40" gradientUnits="userSpaceOnUse">
      <stop offset="0" stop-color="#85754D"/>
      <stop offset="0.5" stop-color="#B7A57A"/>
      <stop offset="1" stop-color="#E8D7A2"/>
    </linearGradient>
    <filter id="softShadow" x="-10%" y="-20%" width="120%" height="140%">
      <feDropShadow dx="0" dy="8" stdDeviation="8" flood-color="#2A1A49" flood-opacity="0.22"/>
    </filter>
  </defs>

  <rect width="960" height="260" rx="34" fill="#FBFAF7"/>

  <g filter="url(#softShadow)">
    <path d="M84 132 C134 36, 240 36, 300 128 S466 222, 524 128"
          fill="none" stroke="url(#purpleFlow)" stroke-width="28"
          stroke-linecap="round"/>
    <path d="M84 132 C134 224, 240 224, 300 128 S466 34, 524 128"
          fill="none" stroke="url(#goldFlow)" stroke-width="28"
          stroke-linecap="round"/>

    <g stroke="#2D194F" stroke-width="8" stroke-linecap="round" opacity="0.92">
      <line x1="132" y1="68" x2="132" y2="194"/>
      <line x1="176" y1="49" x2="176" y2="211"/>
      <line x1="220" y1="59" x2="220" y2="201"/>
      <line x1="264" y1="92" x2="264" y2="168"/>
      <line x1="336" y1="166" x2="336" y2="90"/>
      <line x1="380" y1="203" x2="380" y2="57"/>
      <line x1="424" y1="214" x2="424" y2="46"/>
      <line x1="468" y1="196" x2="468" y2="66"/>
    </g>

    <g fill="#FBFAF7" stroke="#4B2E83" stroke-width="5">
      <circle cx="132" cy="68" r="12"/>
      <circle cx="132" cy="194" r="12"/>
      <circle cx="176" cy="49" r="12"/>
      <circle cx="176" cy="211" r="12"/>
      <circle cx="220" cy="59" r="12"/>
      <circle cx="220" cy="201" r="12"/>
      <circle cx="264" cy="92" r="12"/>
      <circle cx="264" cy="168" r="12"/>
      <circle cx="336" cy="166" r="12"/>
      <circle cx="336" cy="90" r="12"/>
      <circle cx="380" cy="203" r="12"/>
      <circle cx="380" cy="57" r="12"/>
      <circle cx="424" cy="214" r="12"/>
      <circle cx="424" cy="46" r="12"/>
      <circle cx="468" cy="196" r="12"/>
      <circle cx="468" cy="66" r="12"/>
    </g>

    <path d="M512 128 H576" fill="none" stroke="#4B2E83"
          stroke-width="18" stroke-linecap="round"/>
    <path d="M558 99 L594 128 L558 157" fill="none" stroke="#4B2E83"
          stroke-width="18" stroke-linecap="round" stroke-linejoin="round"/>
  </g>

  <g font-family="Aptos, Montserrat, Helvetica, Arial, sans-serif">
    <text x="620" y="154" fill="#4B2E83" font-size="76"
          font-weight="800" letter-spacing="-3">dada2</text>
    <text x="820" y="154" fill="#85754D" font-size="76"
          font-weight="800" letter-spacing="-3">-nf</text>
  </g>
</svg>
